<?xml version="1.0" encoding="UTF-8" ?>
<svg version="1.1" width="35" height="35" xmlns="http://www.w3.org/2000/svg" shape-rendering="crispEdges">
<rect x="18" y="1" width="1" height="1" fill="#3C3536" />
<rect x="19" y="1" width="1" height="1" fill="#3C3536" />
<rect x="20" y="1" width="1" height="1" fill="#3C3536" />
<rect x="17" y="2" width="1" height="1" fill="#3C3536" />
<rect x="18" y="2" width="1" height="1" fill="#3C3536" />
<rect x="19" y="2" width="1" height="1" fill="#3C3536" />
<rect x="20" y="2" width="1" height="1" fill="#3C3536" />
<rect x="21" y="2" width="1" height="1" fill="#3C3536" />
<rect x="16" y="3" width="1" height="1" fill="#3C3536" />
<rect x="17" y="3" width="1" height="1" fill="#3C3536" />
<rect x="18" y="3" width="1" height="1" fill="#3C3536" />
<rect x="19" y="3" width="1" height="1" fill="#3C3536" />
<rect x="20" y="3" width="1" height="1" fill="#3C3536" />
<rect x="21" y="3" width="1" height="1" fill="#3C3536" />
<rect x="22" y="3" width="1" height="1" fill="#3C3536" />
<rect x="6" y="4" width="1" height="1" fill="#3C3536" />
<rect x="7" y="4" width="1" height="1" fill="#3C3536" />
<rect x="8" y="4" width="1" height="1" fill="#3C3536" />
<rect x="9" y="4" width="1" height="1" fill="#3C3536" />
<rect x="15" y="4" width="1" height="1" fill="#3C3536" />
<rect x="16" y="4" width="1" height="1" fill="#3C3536" />
<rect x="17" y="4" width="1" height="1" fill="#3C3536" />
<rect x="18" y="4" width="1" height="1" fill="#3C3536" />
<rect x="19" y="4" width="1" height="1" fill="#3C3536" />
<rect x="20" y="4" width="1" height="1" fill="#3C3536" />
<rect x="21" y="4" width="1" height="1" fill="#3C3536" />
<rect x="22" y="4" width="1" height="1" fill="#3C3536" />
<rect x="23" y="4" width="1" height="1" fill="#3C3536" />
<rect x="5" y="5" width="1" height="1" fill="#3C3536" />
<rect x="6" y="5" width="1" height="1" fill="#3C3536" />
<rect x="7" y="5" width="1" height="1" fill="#3C3536" />
<rect x="8" y="5" width="1" height="1" fill="#3C3536" />
<rect x="9" y="5" width="1" height="1" fill="#3C3536" />
<rect x="10" y="5" width="1" height="1" fill="#3C3536" />
<rect x="15" y="5" width="1" height="1" fill="#3C3536" />
<rect x="16" y="5" width="1" height="1" fill="#3C3536" />
<rect x="17" y="5" width="1" height="1" fill="#3C3536" />
<rect x="18" y="5" width="1" height="1" fill="#3C3536" />
<rect x="19" y="5" width="1" height="1" fill="#3C3536" />
<rect x="20" y="5" width="1" height="1" fill="#3C3536" />
<rect x="21" y="5" width="1" height="1" fill="#3C3536" />
<rect x="22" y="5" width="1" height="1" fill="#3C3536" />
<rect x="23" y="5" width="1" height="1" fill="#3C3536" />
<rect x="4" y="6" width="1" height="1" fill="#3C3536" />
<rect x="5" y="6" width="1" height="1" fill="#3C3536" />
<rect x="6" y="6" width="1" height="1" fill="#3C3536" />
<rect x="7" y="6" width="1" height="1" fill="#3C3536" />
<rect x="8" y="6" width="1" height="1" fill="#3C3536" />
<rect x="9" y="6" width="1" height="1" fill="#3C3536" />
<rect x="10" y="6" width="1" height="1" fill="#3C3536" />
<rect x="11" y="6" width="1" height="1" fill="#3C3536" />
<rect x="15" y="6" width="1" height="1" fill="#3C3536" />
<rect x="16" y="6" width="1" height="1" fill="#3C3536" />
<rect x="17" y="6" width="1" height="1" fill="#3C3536" />
<rect x="18" y="6" width="1" height="1" fill="#3C3536" />
<rect x="19" y="6" width="1" height="1" fill="#3C3536" />
<rect x="20" y="6" width="1" height="1" fill="#3C3536" />
<rect x="21" y="6" width="1" height="1" fill="#3C3536" />
<rect x="22" y="6" width="1" height="1" fill="#3C3536" />
<rect x="23" y="6" width="1" height="1" fill="#3C3536" />
<rect x="4" y="7" width="1" height="1" fill="#3C3536" />
<rect x="5" y="7" width="1" height="1" fill="#3C3536" />
<rect x="6" y="7" width="1" height="1" fill="#3C3536" />
<rect x="7" y="7" width="1" height="1" fill="#3C3536" />
<rect x="8" y="7" width="1" height="1" fill="#3C3536" />
<rect x="9" y="7" width="1" height="1" fill="#3C3536" />
<rect x="10" y="7" width="1" height="1" fill="#3C3536" />
<rect x="11" y="7" width="1" height="1" fill="#3C3536" />
<rect x="16" y="7" width="1" height="1" fill="#3C3536" />
<rect x="17" y="7" width="1" height="1" fill="#3C3536" />
<rect x="18" y="7" width="1" height="1" fill="#3C3536" />
<rect x="19" y="7" width="1" height="1" fill="#3C3536" />
<rect x="20" y="7" width="1" height="1" fill="#3C3536" />
<rect x="21" y="7" width="1" height="1" fill="#3C3536" />
<rect x="22" y="7" width="1" height="1" fill="#3C3536" />
<rect x="4" y="8" width="1" height="1" fill="#3C3536" />
<rect x="5" y="8" width="1" height="1" fill="#3C3536" />
<rect x="6" y="8" width="1" height="1" fill="#3C3536" />
<rect x="7" y="8" width="1" height="1" fill="#3C3536" />
<rect x="8" y="8" width="1" height="1" fill="#3C3536" />
<rect x="9" y="8" width="1" height="1" fill="#3C3536" />
<rect x="10" y="8" width="1" height="1" fill="#3C3536" />
<rect x="11" y="8" width="1" height="1" fill="#3C3536" />
<rect x="17" y="8" width="1" height="1" fill="#3C3536" />
<rect x="18" y="8" width="1" height="1" fill="#3C3536" />
<rect x="19" y="8" width="1" height="1" fill="#3C3536" />
<rect x="20" y="8" width="1" height="1" fill="#3C3536" />
<rect x="21" y="8" width="1" height="1" fill="#3C3536" />
<rect x="4" y="9" width="1" height="1" fill="#3C3536" />
<rect x="5" y="9" width="1" height="1" fill="#3C3536" />
<rect x="6" y="9" width="1" height="1" fill="#3C3536" />
<rect x="7" y="9" width="1" height="1" fill="#3C3536" />
<rect x="8" y="9" width="1" height="1" fill="#3C3536" />
<rect x="9" y="9" width="1" height="1" fill="#3C3536" />
<rect x="10" y="9" width="1" height="1" fill="#3C3536" />
<rect x="11" y="9" width="1" height="1" fill="#3C3536" />
<rect x="18" y="9" width="1" height="1" fill="#3C3536" />
<rect x="19" y="9" width="1" height="1" fill="#3C3536" />
<rect x="20" y="9" width="1" height="1" fill="#3C3536" />
<rect x="5" y="10" width="1" height="1" fill="#3C3536" />
<rect x="6" y="10" width="1" height="1" fill="#3C3536" />
<rect x="7" y="10" width="1" height="1" fill="#3C3536" />
<rect x="8" y="10" width="1" height="1" fill="#3C3536" />
<rect x="9" y="10" width="1" height="1" fill="#3C3536" />
<rect x="10" y="10" width="1" height="1" fill="#3C3536" />
<rect x="6" y="11" width="1" height="1" fill="#3C3536" />
<rect x="7" y="11" width="1" height="1" fill="#3C3536" />
<rect x="8" y="11" width="1" height="1" fill="#3C3536" />
<rect x="9" y="11" width="1" height="1" fill="#3C3536" />
<rect x="3" y="14" width="1" height="1" fill="#3C3536" />
<rect x="4" y="14" width="1" height="1" fill="#3C3536" />
<rect x="5" y="14" width="1" height="1" fill="#3C3536" />
<rect x="2" y="15" width="1" height="1" fill="#3C3536" />
<rect x="3" y="15" width="1" height="1" fill="#3C3536" />
<rect x="4" y="15" width="1" height="1" fill="#3C3536" />
<rect x="5" y="15" width="1" height="1" fill="#3C3536" />
<rect x="6" y="15" width="1" height="1" fill="#3C3536" />
<rect x="1" y="16" width="1" height="1" fill="#3C3536" />
<rect x="2" y="16" width="1" height="1" fill="#3C3536" />
<rect x="3" y="16" width="1" height="1" fill="#3C3536" />
<rect x="4" y="16" width="1" height="1" fill="#3C3536" />
<rect x="5" y="16" width="1" height="1" fill="#3C3536" />
<rect x="6" y="16" width="1" height="1" fill="#3C3536" />
<rect x="7" y="16" width="1" height="1" fill="#3C3536" />
<rect x="29" y="16" width="1" height="1" fill="#3C3536" />
<rect x="1" y="17" width="1" height="1" fill="#3C3536" />
<rect x="2" y="17" width="1" height="1" fill="#3C3536" />
<rect x="3" y="17" width="1" height="1" fill="#3C3536" />
<rect x="4" y="17" width="1" height="1" fill="#3C3536" />
<rect x="5" y="17" width="1" height="1" fill="#3C3536" />
<rect x="6" y="17" width="1" height="1" fill="#3C3536" />
<rect x="7" y="17" width="1" height="1" fill="#3C3536" />
<rect x="28" y="17" width="1" height="1" fill="#3C3536" />
<rect x="29" y="17" width="1" height="1" fill="#3C3536" />
<rect x="30" y="17" width="1" height="1" fill="#3C3536" />
<rect x="1" y="18" width="1" height="1" fill="#3C3536" />
<rect x="2" y="18" width="1" height="1" fill="#3C3536" />
<rect x="3" y="18" width="1" height="1" fill="#3C3536" />
<rect x="4" y="18" width="1" height="1" fill="#3C3536" />
<rect x="5" y="18" width="1" height="1" fill="#3C3536" />
<rect x="6" y="18" width="1" height="1" fill="#3C3536" />
<rect x="7" y="18" width="1" height="1" fill="#3C3536" />
<rect x="29" y="18" width="1" height="1" fill="#3C3536" />
<rect x="2" y="19" width="1" height="1" fill="#3C3536" />
<rect x="3" y="19" width="1" height="1" fill="#3C3536" />
<rect x="4" y="19" width="1" height="1" fill="#3C3536" />
<rect x="5" y="19" width="1" height="1" fill="#3C3536" />
<rect x="6" y="19" width="1" height="1" fill="#3C3536" />
<rect x="3" y="20" width="1" height="1" fill="#3C3536" />
<rect x="4" y="20" width="1" height="1" fill="#3C3536" />
<rect x="5" y="20" width="1" height="1" fill="#3C3536" />
<rect x="8" y="23" width="1" height="1" fill="#3C3536" />
<rect x="9" y="23" width="1" height="1" fill="#3C3536" />
<rect x="7" y="24" width="1" height="1" fill="#3C3536" />
<rect x="8" y="24" width="1" height="1" fill="#3C3536" />
<rect x="9" y="24" width="1" height="1" fill="#3C3536" />
<rect x="10" y="24" width="1" height="1" fill="#3C3536" />
<rect x="25" y="24" width="1" height="1" fill="#3C3536" />
<rect x="26" y="24" width="1" height="1" fill="#3C3536" />
<rect x="6" y="25" width="1" height="1" fill="#3C3536" />
<rect x="7" y="25" width="1" height="1" fill="#3C3536" />
<rect x="8" y="25" width="1" height="1" fill="#3C3536" />
<rect x="9" y="25" width="1" height="1" fill="#3C3536" />
<rect x="10" y="25" width="1" height="1" fill="#3C3536" />
<rect x="11" y="25" width="1" height="1" fill="#3C3536" />
<rect x="24" y="25" width="1" height="1" fill="#3C3536" />
<rect x="25" y="25" width="1" height="1" fill="#3C3536" />
<rect x="26" y="25" width="1" height="1" fill="#3C3536" />
<rect x="27" y="25" width="1" height="1" fill="#3C3536" />
<rect x="6" y="26" width="1" height="1" fill="#3C3536" />
<rect x="7" y="26" width="1" height="1" fill="#3C3536" />
<rect x="8" y="26" width="1" height="1" fill="#3C3536" />
<rect x="9" y="26" width="1" height="1" fill="#3C3536" />
<rect x="10" y="26" width="1" height="1" fill="#3C3536" />
<rect x="11" y="26" width="1" height="1" fill="#3C3536" />
<rect x="24" y="26" width="1" height="1" fill="#3C3536" />
<rect x="25" y="26" width="1" height="1" fill="#3C3536" />
<rect x="26" y="26" width="1" height="1" fill="#3C3536" />
<rect x="27" y="26" width="1" height="1" fill="#3C3536" />
<rect x="7" y="27" width="1" height="1" fill="#3C3536" />
<rect x="8" y="27" width="1" height="1" fill="#3C3536" />
<rect x="9" y="27" width="1" height="1" fill="#3C3536" />
<rect x="10" y="27" width="1" height="1" fill="#3C3536" />
<rect x="25" y="27" width="1" height="1" fill="#3C3536" />
<rect x="26" y="27" width="1" height="1" fill="#3C3536" />
<rect x="8" y="28" width="1" height="1" fill="#3C3536" />
<rect x="9" y="28" width="1" height="1" fill="#3C3536" />
<rect x="16" y="28" width="1" height="1" fill="#3C3536" />
<rect x="17" y="28" width="1" height="1" fill="#3C3536" />
<rect x="18" y="28" width="1" height="1" fill="#3C3536" />
<rect x="15" y="29" width="1" height="1" fill="#3C3536" />
<rect x="16" y="29" width="1" height="1" fill="#3C3536" />
<rect x="17" y="29" width="1" height="1" fill="#3C3536" />
<rect x="18" y="29" width="1" height="1" fill="#3C3536" />
<rect x="19" y="29" width="1" height="1" fill="#3C3536" />
<rect x="15" y="30" width="1" height="1" fill="#3C3536" />
<rect x="16" y="30" width="1" height="1" fill="#3C3536" />
<rect x="17" y="30" width="1" height="1" fill="#3C3536" />
<rect x="18" y="30" width="1" height="1" fill="#3C3536" />
<rect x="19" y="30" width="1" height="1" fill="#3C3536" />
<rect x="15" y="31" width="1" height="1" fill="#3C3536" />
<rect x="16" y="31" width="1" height="1" fill="#3C3536" />
<rect x="17" y="31" width="1" height="1" fill="#3C3536" />
<rect x="18" y="31" width="1" height="1" fill="#3C3536" />
<rect x="19" y="31" width="1" height="1" fill="#3C3536" />
<rect x="16" y="32" width="1" height="1" fill="#3C3536" />
<rect x="17" y="32" width="1" height="1" fill="#3C3536" />
<rect x="18" y="32" width="1" height="1" fill="#3C3536" />
</svg>