<?xml version="1.0" encoding="UTF-8" ?>
<svg version="1.1" width="64" height="64" xmlns="http://www.w3.org/2000/svg" shape-rendering="crispEdges">
<rect x="0" y="4" width="1" height="1" fill="#686360" />
<rect x="1" y="4" width="1" height="1" fill="#686360" />
<rect x="2" y="4" width="1" height="1" fill="#686360" />
<rect x="3" y="4" width="1" height="1" fill="#686360" />
<rect x="4" y="4" width="1" height="1" fill="#686360" />
<rect x="5" y="4" width="1" height="1" fill="#686360" />
<rect x="6" y="4" width="1" height="1" fill="#686360" />
<rect x="7" y="4" width="1" height="1" fill="#686360" />
<rect x="8" y="4" width="1" height="1" fill="#686360" />
<rect x="9" y="4" width="1" height="1" fill="#686360" />
<rect x="10" y="4" width="1" height="1" fill="#686360" />
<rect x="11" y="4" width="1" height="1" fill="#686360" />
<rect x="12" y="4" width="1" height="1" fill="#686360" />
<rect x="13" y="4" width="1" height="1" fill="#686360" />
<rect x="14" y="4" width="1" height="1" fill="#686360" />
<rect x="15" y="4" width="1" height="1" fill="#686360" />
<rect x="16" y="4" width="1" height="1" fill="#686360" />
<rect x="17" y="4" width="1" height="1" fill="#686360" />
<rect x="0" y="5" width="1" height="1" fill="#686360" />
<rect x="1" y="5" width="1" height="1" fill="#686360" />
<rect x="2" y="5" width="1" height="1" fill="#686360" />
<rect x="3" y="5" width="1" height="1" fill="#686360" />
<rect x="4" y="5" width="1" height="1" fill="#686360" />
<rect x="5" y="5" width="1" height="1" fill="#686360" />
<rect x="6" y="5" width="1" height="1" fill="#686360" />
<rect x="7" y="5" width="1" height="1" fill="#686360" />
<rect x="8" y="5" width="1" height="1" fill="#686360" />
<rect x="9" y="5" width="1" height="1" fill="#686360" />
<rect x="10" y="5" width="1" height="1" fill="#686360" />
<rect x="11" y="5" width="1" height="1" fill="#686360" />
<rect x="12" y="5" width="1" height="1" fill="#686360" />
<rect x="13" y="5" width="1" height="1" fill="#686360" />
<rect x="14" y="5" width="1" height="1" fill="#686360" />
<rect x="15" y="5" width="1" height="1" fill="#686360" />
<rect x="16" y="5" width="1" height="1" fill="#686360" />
<rect x="17" y="5" width="1" height="1" fill="#686360" />
<rect x="18" y="5" width="1" height="1" fill="#686360" />
<rect x="19" y="5" width="1" height="1" fill="#686360" />
<rect x="20" y="5" width="1" height="1" fill="#686360" />
<rect x="21" y="5" width="1" height="1" fill="#686360" />
<rect x="22" y="5" width="1" height="1" fill="#686360" />
<rect x="23" y="5" width="1" height="1" fill="#686360" />
<rect x="18" y="6" width="1" height="1" fill="#686360" />
<rect x="19" y="6" width="1" height="1" fill="#686360" />
<rect x="20" y="6" width="1" height="1" fill="#686360" />
<rect x="21" y="6" width="1" height="1" fill="#686360" />
<rect x="22" y="6" width="1" height="1" fill="#686360" />
<rect x="23" y="6" width="1" height="1" fill="#686360" />
<rect x="24" y="6" width="1" height="1" fill="#686360" />
<rect x="25" y="6" width="1" height="1" fill="#686360" />
<rect x="26" y="6" width="1" height="1" fill="#686360" />
<rect x="27" y="6" width="1" height="1" fill="#686360" />
<rect x="28" y="6" width="1" height="1" fill="#686360" />
<rect x="29" y="6" width="1" height="1" fill="#686360" />
<rect x="30" y="6" width="1" height="1" fill="#686360" />
<rect x="31" y="6" width="1" height="1" fill="#686360" />
<rect x="32" y="6" width="1" height="1" fill="#686360" />
<rect x="33" y="6" width="1" height="1" fill="#686360" />
<rect x="34" y="6" width="1" height="1" fill="#686360" />
<rect x="35" y="6" width="1" height="1" fill="#686360" />
<rect x="36" y="6" width="1" height="1" fill="#686360" />
<rect x="37" y="6" width="1" height="1" fill="#686360" />
<rect x="38" y="6" width="1" height="1" fill="#686360" />
<rect x="39" y="6" width="1" height="1" fill="#686360" />
<rect x="40" y="6" width="1" height="1" fill="#686360" />
<rect x="41" y="6" width="1" height="1" fill="#686360" />
<rect x="42" y="6" width="1" height="1" fill="#686360" />
<rect x="43" y="6" width="1" height="1" fill="#686360" />
<rect x="24" y="7" width="1" height="1" fill="#686360" />
<rect x="25" y="7" width="1" height="1" fill="#686360" />
<rect x="26" y="7" width="1" height="1" fill="#686360" />
<rect x="27" y="7" width="1" height="1" fill="#686360" />
<rect x="28" y="7" width="1" height="1" fill="#686360" />
<rect x="29" y="7" width="1" height="1" fill="#686360" />
<rect x="30" y="7" width="1" height="1" fill="#686360" />
<rect x="31" y="7" width="1" height="1" fill="#686360" />
<rect x="32" y="7" width="1" height="1" fill="#686360" />
<rect x="33" y="7" width="1" height="1" fill="#686360" />
<rect x="34" y="7" width="1" height="1" fill="#686360" />
<rect x="35" y="7" width="1" height="1" fill="#686360" />
<rect x="36" y="7" width="1" height="1" fill="#686360" />
<rect x="37" y="7" width="1" height="1" fill="#686360" />
<rect x="38" y="7" width="1" height="1" fill="#686360" />
<rect x="39" y="7" width="1" height="1" fill="#686360" />
<rect x="40" y="7" width="1" height="1" fill="#686360" />
<rect x="41" y="7" width="1" height="1" fill="#686360" />
<rect x="42" y="7" width="1" height="1" fill="#686360" />
<rect x="43" y="7" width="1" height="1" fill="#686360" />
<rect x="44" y="7" width="1" height="1" fill="#686360" />
<rect x="45" y="7" width="1" height="1" fill="#686360" />
<rect x="46" y="7" width="1" height="1" fill="#686360" />
<rect x="47" y="7" width="1" height="1" fill="#686360" />
<rect x="48" y="7" width="1" height="1" fill="#686360" />
<rect x="49" y="7" width="1" height="1" fill="#686360" />
<rect x="50" y="7" width="1" height="1" fill="#686360" />
<rect x="51" y="7" width="1" height="1" fill="#686360" />
<rect x="52" y="7" width="1" height="1" fill="#686360" />
<rect x="53" y="7" width="1" height="1" fill="#686360" />
<rect x="44" y="8" width="1" height="1" fill="#686360" />
<rect x="45" y="8" width="1" height="1" fill="#686360" />
<rect x="46" y="8" width="1" height="1" fill="#686360" />
<rect x="47" y="8" width="1" height="1" fill="#686360" />
<rect x="48" y="8" width="1" height="1" fill="#686360" />
<rect x="49" y="8" width="1" height="1" fill="#686360" />
<rect x="50" y="8" width="1" height="1" fill="#686360" />
<rect x="51" y="8" width="1" height="1" fill="#686360" />
<rect x="52" y="8" width="1" height="1" fill="#686360" />
<rect x="53" y="8" width="1" height="1" fill="#686360" />
<rect x="54" y="8" width="1" height="1" fill="#686360" />
<rect x="55" y="8" width="1" height="1" fill="#686360" />
<rect x="54" y="9" width="1" height="1" fill="#686360" />
<rect x="55" y="9" width="1" height="1" fill="#686360" />
<rect x="56" y="9" width="1" height="1" fill="#686360" />
<rect x="55" y="10" width="1" height="1" fill="#686360" />
<rect x="56" y="10" width="1" height="1" fill="#686360" />
<rect x="57" y="10" width="1" height="1" fill="#686360" />
<rect x="56" y="11" width="1" height="1" fill="#686360" />
<rect x="57" y="11" width="1" height="1" fill="#686360" />
<rect x="57" y="12" width="1" height="1" fill="#686360" />
<rect x="58" y="12" width="1" height="1" fill="#686360" />
<rect x="57" y="13" width="1" height="1" fill="#686360" />
<rect x="58" y="13" width="1" height="1" fill="#686360" />
<rect x="57" y="14" width="1" height="1" fill="#686360" />
<rect x="58" y="14" width="1" height="1" fill="#686360" />
<rect x="57" y="15" width="1" height="1" fill="#686360" />
<rect x="58" y="15" width="1" height="1" fill="#686360" />
<rect x="57" y="16" width="1" height="1" fill="#686360" />
<rect x="58" y="16" width="1" height="1" fill="#686360" />
<rect x="57" y="17" width="1" height="1" fill="#686360" />
<rect x="58" y="17" width="1" height="1" fill="#686360" />
<rect x="58" y="18" width="1" height="1" fill="#686360" />
<rect x="59" y="18" width="1" height="1" fill="#686360" />
<rect x="58" y="19" width="1" height="1" fill="#686360" />
<rect x="59" y="19" width="1" height="1" fill="#686360" />
<rect x="58" y="20" width="1" height="1" fill="#686360" />
<rect x="59" y="20" width="1" height="1" fill="#686360" />
<rect x="58" y="21" width="1" height="1" fill="#686360" />
<rect x="59" y="21" width="1" height="1" fill="#686360" />
<rect x="58" y="22" width="1" height="1" fill="#686360" />
<rect x="59" y="22" width="1" height="1" fill="#686360" />
<rect x="58" y="23" width="1" height="1" fill="#686360" />
<rect x="59" y="23" width="1" height="1" fill="#686360" />
<rect x="58" y="24" width="1" height="1" fill="#686360" />
<rect x="59" y="24" width="1" height="1" fill="#686360" />
<rect x="58" y="25" width="1" height="1" fill="#686360" />
<rect x="59" y="25" width="1" height="1" fill="#686360" />
<rect x="58" y="26" width="1" height="1" fill="#686360" />
<rect x="59" y="26" width="1" height="1" fill="#686360" />
<rect x="58" y="27" width="1" height="1" fill="#686360" />
<rect x="59" y="27" width="1" height="1" fill="#686360" />
<rect x="58" y="28" width="1" height="1" fill="#686360" />
<rect x="59" y="28" width="1" height="1" fill="#686360" />
<rect x="59" y="29" width="1" height="1" fill="#686360" />
<rect x="60" y="29" width="1" height="1" fill="#686360" />
<rect x="59" y="30" width="1" height="1" fill="#686360" />
<rect x="60" y="30" width="1" height="1" fill="#686360" />
<rect x="59" y="31" width="1" height="1" fill="#686360" />
<rect x="60" y="31" width="1" height="1" fill="#686360" />
<rect x="59" y="32" width="1" height="1" fill="#686360" />
<rect x="60" y="32" width="1" height="1" fill="#686360" />
<rect x="59" y="33" width="1" height="1" fill="#686360" />
<rect x="60" y="33" width="1" height="1" fill="#686360" />
<rect x="59" y="34" width="1" height="1" fill="#686360" />
<rect x="60" y="34" width="1" height="1" fill="#686360" />
<rect x="59" y="35" width="1" height="1" fill="#686360" />
<rect x="60" y="35" width="1" height="1" fill="#686360" />
<rect x="59" y="36" width="1" height="1" fill="#686360" />
<rect x="60" y="36" width="1" height="1" fill="#686360" />
<rect x="59" y="37" width="1" height="1" fill="#686360" />
<rect x="60" y="37" width="1" height="1" fill="#686360" />
<rect x="59" y="38" width="1" height="1" fill="#686360" />
<rect x="60" y="38" width="1" height="1" fill="#686360" />
<rect x="59" y="39" width="1" height="1" fill="#686360" />
<rect x="60" y="39" width="1" height="1" fill="#686360" />
<rect x="59" y="40" width="1" height="1" fill="#686360" />
<rect x="60" y="40" width="1" height="1" fill="#686360" />
<rect x="60" y="41" width="1" height="1" fill="#686360" />
<rect x="61" y="41" width="1" height="1" fill="#686360" />
<rect x="60" y="42" width="1" height="1" fill="#686360" />
<rect x="61" y="42" width="1" height="1" fill="#686360" />
<rect x="60" y="43" width="1" height="1" fill="#686360" />
<rect x="61" y="43" width="1" height="1" fill="#686360" />
<rect x="60" y="44" width="1" height="1" fill="#686360" />
<rect x="61" y="44" width="1" height="1" fill="#686360" />
<rect x="60" y="45" width="1" height="1" fill="#686360" />
<rect x="61" y="45" width="1" height="1" fill="#686360" />
<rect x="60" y="46" width="1" height="1" fill="#686360" />
<rect x="61" y="46" width="1" height="1" fill="#686360" />
<rect x="60" y="47" width="1" height="1" fill="#686360" />
<rect x="61" y="47" width="1" height="1" fill="#686360" />
<rect x="60" y="48" width="1" height="1" fill="#686360" />
<rect x="61" y="48" width="1" height="1" fill="#686360" />
<rect x="60" y="49" width="1" height="1" fill="#686360" />
<rect x="61" y="49" width="1" height="1" fill="#686360" />
<rect x="60" y="50" width="1" height="1" fill="#686360" />
<rect x="61" y="50" width="1" height="1" fill="#686360" />
<rect x="60" y="51" width="1" height="1" fill="#686360" />
<rect x="61" y="51" width="1" height="1" fill="#686360" />
<rect x="60" y="52" width="1" height="1" fill="#686360" />
<rect x="61" y="52" width="1" height="1" fill="#686360" />
<rect x="60" y="53" width="1" height="1" fill="#686360" />
<rect x="61" y="53" width="1" height="1" fill="#686360" />
<rect x="60" y="54" width="1" height="1" fill="#686360" />
<rect x="61" y="54" width="1" height="1" fill="#686360" />
<rect x="60" y="55" width="1" height="1" fill="#686360" />
<rect x="61" y="55" width="1" height="1" fill="#686360" />
<rect x="60" y="56" width="1" height="1" fill="#686360" />
<rect x="61" y="56" width="1" height="1" fill="#686360" />
<rect x="60" y="57" width="1" height="1" fill="#686360" />
<rect x="61" y="57" width="1" height="1" fill="#686360" />
<rect x="60" y="58" width="1" height="1" fill="#686360" />
<rect x="61" y="58" width="1" height="1" fill="#686360" />
<rect x="60" y="59" width="1" height="1" fill="#686360" />
<rect x="61" y="59" width="1" height="1" fill="#686360" />
<rect x="60" y="60" width="1" height="1" fill="#686360" />
<rect x="61" y="60" width="1" height="1" fill="#686360" />
<rect x="60" y="61" width="1" height="1" fill="#686360" />
<rect x="61" y="61" width="1" height="1" fill="#686360" />
<rect x="60" y="62" width="1" height="1" fill="#686360" />
<rect x="61" y="62" width="1" height="1" fill="#686360" />
<rect x="60" y="63" width="1" height="1" fill="#686360" />
<rect x="61" y="63" width="1" height="1" fill="#686360" />
</svg>