<?xml version="1.0" encoding="UTF-8" ?>
<svg version="1.1" width="64" height="64" xmlns="http://www.w3.org/2000/svg" shape-rendering="crispEdges">
<rect x="0" y="60" width="1" height="1" fill="#686360" />
<rect x="1" y="60" width="1" height="1" fill="#686360" />
<rect x="2" y="60" width="1" height="1" fill="#686360" />
<rect x="3" y="60" width="1" height="1" fill="#686360" />
<rect x="4" y="60" width="1" height="1" fill="#686360" />
<rect x="5" y="60" width="1" height="1" fill="#686360" />
<rect x="6" y="60" width="1" height="1" fill="#686360" />
<rect x="7" y="60" width="1" height="1" fill="#686360" />
<rect x="8" y="60" width="1" height="1" fill="#686360" />
<rect x="9" y="60" width="1" height="1" fill="#686360" />
<rect x="10" y="60" width="1" height="1" fill="#686360" />
<rect x="11" y="60" width="1" height="1" fill="#686360" />
<rect x="12" y="60" width="1" height="1" fill="#686360" />
<rect x="13" y="60" width="1" height="1" fill="#686360" />
<rect x="14" y="60" width="1" height="1" fill="#686360" />
<rect x="15" y="60" width="1" height="1" fill="#686360" />
<rect x="16" y="60" width="1" height="1" fill="#686360" />
<rect x="17" y="60" width="1" height="1" fill="#686360" />
<rect x="18" y="60" width="1" height="1" fill="#686360" />
<rect x="19" y="60" width="1" height="1" fill="#686360" />
<rect x="20" y="60" width="1" height="1" fill="#686360" />
<rect x="21" y="60" width="1" height="1" fill="#686360" />
<rect x="22" y="60" width="1" height="1" fill="#686360" />
<rect x="23" y="60" width="1" height="1" fill="#686360" />
<rect x="24" y="60" width="1" height="1" fill="#686360" />
<rect x="25" y="60" width="1" height="1" fill="#686360" />
<rect x="26" y="60" width="1" height="1" fill="#686360" />
<rect x="27" y="60" width="1" height="1" fill="#686360" />
<rect x="28" y="60" width="1" height="1" fill="#686360" />
<rect x="29" y="60" width="1" height="1" fill="#686360" />
<rect x="30" y="60" width="1" height="1" fill="#686360" />
<rect x="31" y="60" width="1" height="1" fill="#686360" />
<rect x="32" y="60" width="1" height="1" fill="#686360" />
<rect x="33" y="60" width="1" height="1" fill="#686360" />
<rect x="34" y="60" width="1" height="1" fill="#686360" />
<rect x="35" y="60" width="1" height="1" fill="#686360" />
<rect x="36" y="60" width="1" height="1" fill="#686360" />
<rect x="37" y="60" width="1" height="1" fill="#686360" />
<rect x="38" y="60" width="1" height="1" fill="#686360" />
<rect x="39" y="60" width="1" height="1" fill="#686360" />
<rect x="40" y="60" width="1" height="1" fill="#686360" />
<rect x="41" y="60" width="1" height="1" fill="#686360" />
<rect x="42" y="60" width="1" height="1" fill="#686360" />
<rect x="43" y="60" width="1" height="1" fill="#686360" />
<rect x="44" y="60" width="1" height="1" fill="#686360" />
<rect x="45" y="60" width="1" height="1" fill="#686360" />
<rect x="46" y="60" width="1" height="1" fill="#686360" />
<rect x="47" y="60" width="1" height="1" fill="#686360" />
<rect x="48" y="60" width="1" height="1" fill="#686360" />
<rect x="49" y="60" width="1" height="1" fill="#686360" />
<rect x="50" y="60" width="1" height="1" fill="#686360" />
<rect x="51" y="60" width="1" height="1" fill="#686360" />
<rect x="52" y="60" width="1" height="1" fill="#686360" />
<rect x="53" y="60" width="1" height="1" fill="#686360" />
<rect x="54" y="60" width="1" height="1" fill="#686360" />
<rect x="55" y="60" width="1" height="1" fill="#686360" />
<rect x="56" y="60" width="1" height="1" fill="#686360" />
<rect x="57" y="60" width="1" height="1" fill="#686360" />
<rect x="58" y="60" width="1" height="1" fill="#686360" />
<rect x="59" y="60" width="1" height="1" fill="#686360" />
<rect x="60" y="60" width="1" height="1" fill="#686360" />
<rect x="61" y="60" width="1" height="1" fill="#686360" />
<rect x="62" y="60" width="1" height="1" fill="#686360" />
<rect x="63" y="60" width="1" height="1" fill="#686360" />
<rect x="0" y="61" width="1" height="1" fill="#686360" />
<rect x="1" y="61" width="1" height="1" fill="#686360" />
<rect x="2" y="61" width="1" height="1" fill="#686360" />
<rect x="3" y="61" width="1" height="1" fill="#686360" />
<rect x="4" y="61" width="1" height="1" fill="#686360" />
<rect x="5" y="61" width="1" height="1" fill="#686360" />
<rect x="6" y="61" width="1" height="1" fill="#686360" />
<rect x="7" y="61" width="1" height="1" fill="#686360" />
<rect x="8" y="61" width="1" height="1" fill="#686360" />
<rect x="9" y="61" width="1" height="1" fill="#686360" />
<rect x="10" y="61" width="1" height="1" fill="#686360" />
<rect x="11" y="61" width="1" height="1" fill="#686360" />
<rect x="12" y="61" width="1" height="1" fill="#686360" />
<rect x="13" y="61" width="1" height="1" fill="#686360" />
<rect x="14" y="61" width="1" height="1" fill="#686360" />
<rect x="15" y="61" width="1" height="1" fill="#686360" />
<rect x="16" y="61" width="1" height="1" fill="#686360" />
<rect x="17" y="61" width="1" height="1" fill="#686360" />
<rect x="18" y="61" width="1" height="1" fill="#686360" />
<rect x="19" y="61" width="1" height="1" fill="#686360" />
<rect x="20" y="61" width="1" height="1" fill="#686360" />
<rect x="21" y="61" width="1" height="1" fill="#686360" />
<rect x="22" y="61" width="1" height="1" fill="#686360" />
<rect x="23" y="61" width="1" height="1" fill="#686360" />
<rect x="24" y="61" width="1" height="1" fill="#686360" />
<rect x="25" y="61" width="1" height="1" fill="#686360" />
<rect x="26" y="61" width="1" height="1" fill="#686360" />
<rect x="27" y="61" width="1" height="1" fill="#686360" />
<rect x="28" y="61" width="1" height="1" fill="#686360" />
<rect x="29" y="61" width="1" height="1" fill="#686360" />
<rect x="30" y="61" width="1" height="1" fill="#686360" />
<rect x="31" y="61" width="1" height="1" fill="#686360" />
<rect x="32" y="61" width="1" height="1" fill="#686360" />
<rect x="33" y="61" width="1" height="1" fill="#686360" />
<rect x="34" y="61" width="1" height="1" fill="#686360" />
<rect x="35" y="61" width="1" height="1" fill="#686360" />
<rect x="36" y="61" width="1" height="1" fill="#686360" />
<rect x="37" y="61" width="1" height="1" fill="#686360" />
<rect x="38" y="61" width="1" height="1" fill="#686360" />
<rect x="39" y="61" width="1" height="1" fill="#686360" />
<rect x="40" y="61" width="1" height="1" fill="#686360" />
<rect x="41" y="61" width="1" height="1" fill="#686360" />
<rect x="42" y="61" width="1" height="1" fill="#686360" />
<rect x="43" y="61" width="1" height="1" fill="#686360" />
<rect x="44" y="61" width="1" height="1" fill="#686360" />
<rect x="45" y="61" width="1" height="1" fill="#686360" />
<rect x="46" y="61" width="1" height="1" fill="#686360" />
<rect x="47" y="61" width="1" height="1" fill="#686360" />
<rect x="48" y="61" width="1" height="1" fill="#686360" />
<rect x="49" y="61" width="1" height="1" fill="#686360" />
<rect x="50" y="61" width="1" height="1" fill="#686360" />
<rect x="51" y="61" width="1" height="1" fill="#686360" />
<rect x="52" y="61" width="1" height="1" fill="#686360" />
<rect x="53" y="61" width="1" height="1" fill="#686360" />
<rect x="54" y="61" width="1" height="1" fill="#686360" />
<rect x="55" y="61" width="1" height="1" fill="#686360" />
<rect x="56" y="61" width="1" height="1" fill="#686360" />
<rect x="57" y="61" width="1" height="1" fill="#686360" />
<rect x="58" y="61" width="1" height="1" fill="#686360" />
<rect x="59" y="61" width="1" height="1" fill="#686360" />
<rect x="60" y="61" width="1" height="1" fill="#686360" />
<rect x="61" y="61" width="1" height="1" fill="#686360" />
<rect x="62" y="61" width="1" height="1" fill="#686360" />
<rect x="63" y="61" width="1" height="1" fill="#686360" />
</svg>