<?xml version="1.0" encoding="UTF-8" ?>
<svg version="1.1" width="64" height="64" xmlns="http://www.w3.org/2000/svg" shape-rendering="crispEdges">
<rect x="8" y="2" width="1" height="1" fill="#686360" />
<rect x="9" y="2" width="1" height="1" fill="#686360" />
<rect x="10" y="2" width="1" height="1" fill="#686360" />
<rect x="11" y="2" width="1" height="1" fill="#686360" />
<rect x="12" y="2" width="1" height="1" fill="#686360" />
<rect x="13" y="2" width="1" height="1" fill="#686360" />
<rect x="14" y="2" width="1" height="1" fill="#686360" />
<rect x="15" y="2" width="1" height="1" fill="#686360" />
<rect x="16" y="2" width="1" height="1" fill="#686360" />
<rect x="17" y="2" width="1" height="1" fill="#686360" />
<rect x="7" y="3" width="1" height="1" fill="#686360" />
<rect x="8" y="3" width="1" height="1" fill="#686360" />
<rect x="9" y="3" width="1" height="1" fill="#686360" />
<rect x="10" y="3" width="1" height="1" fill="#686360" />
<rect x="11" y="3" width="1" height="1" fill="#686360" />
<rect x="12" y="3" width="1" height="1" fill="#686360" />
<rect x="13" y="3" width="1" height="1" fill="#686360" />
<rect x="14" y="3" width="1" height="1" fill="#686360" />
<rect x="15" y="3" width="1" height="1" fill="#686360" />
<rect x="16" y="3" width="1" height="1" fill="#686360" />
<rect x="17" y="3" width="1" height="1" fill="#686360" />
<rect x="18" y="3" width="1" height="1" fill="#686360" />
<rect x="19" y="3" width="1" height="1" fill="#686360" />
<rect x="20" y="3" width="1" height="1" fill="#686360" />
<rect x="21" y="3" width="1" height="1" fill="#686360" />
<rect x="22" y="3" width="1" height="1" fill="#686360" />
<rect x="6" y="4" width="1" height="1" fill="#686360" />
<rect x="7" y="4" width="1" height="1" fill="#686360" />
<rect x="18" y="4" width="1" height="1" fill="#686360" />
<rect x="19" y="4" width="1" height="1" fill="#686360" />
<rect x="20" y="4" width="1" height="1" fill="#686360" />
<rect x="21" y="4" width="1" height="1" fill="#686360" />
<rect x="22" y="4" width="1" height="1" fill="#686360" />
<rect x="23" y="4" width="1" height="1" fill="#686360" />
<rect x="24" y="4" width="1" height="1" fill="#686360" />
<rect x="25" y="4" width="1" height="1" fill="#686360" />
<rect x="26" y="4" width="1" height="1" fill="#686360" />
<rect x="27" y="4" width="1" height="1" fill="#686360" />
<rect x="28" y="4" width="1" height="1" fill="#686360" />
<rect x="29" y="4" width="1" height="1" fill="#686360" />
<rect x="30" y="4" width="1" height="1" fill="#686360" />
<rect x="31" y="4" width="1" height="1" fill="#686360" />
<rect x="47" y="4" width="1" height="1" fill="#686360" />
<rect x="48" y="4" width="1" height="1" fill="#686360" />
<rect x="49" y="4" width="1" height="1" fill="#686360" />
<rect x="50" y="4" width="1" height="1" fill="#686360" />
<rect x="51" y="4" width="1" height="1" fill="#686360" />
<rect x="52" y="4" width="1" height="1" fill="#686360" />
<rect x="53" y="4" width="1" height="1" fill="#686360" />
<rect x="54" y="4" width="1" height="1" fill="#686360" />
<rect x="55" y="4" width="1" height="1" fill="#686360" />
<rect x="56" y="4" width="1" height="1" fill="#686360" />
<rect x="57" y="4" width="1" height="1" fill="#686360" />
<rect x="58" y="4" width="1" height="1" fill="#686360" />
<rect x="59" y="4" width="1" height="1" fill="#686360" />
<rect x="60" y="4" width="1" height="1" fill="#686360" />
<rect x="61" y="4" width="1" height="1" fill="#686360" />
<rect x="62" y="4" width="1" height="1" fill="#686360" />
<rect x="63" y="4" width="1" height="1" fill="#686360" />
<rect x="6" y="5" width="1" height="1" fill="#686360" />
<rect x="7" y="5" width="1" height="1" fill="#686360" />
<rect x="23" y="5" width="1" height="1" fill="#686360" />
<rect x="24" y="5" width="1" height="1" fill="#686360" />
<rect x="25" y="5" width="1" height="1" fill="#686360" />
<rect x="26" y="5" width="1" height="1" fill="#686360" />
<rect x="27" y="5" width="1" height="1" fill="#686360" />
<rect x="28" y="5" width="1" height="1" fill="#686360" />
<rect x="29" y="5" width="1" height="1" fill="#686360" />
<rect x="30" y="5" width="1" height="1" fill="#686360" />
<rect x="31" y="5" width="1" height="1" fill="#686360" />
<rect x="32" y="5" width="1" height="1" fill="#686360" />
<rect x="33" y="5" width="1" height="1" fill="#686360" />
<rect x="34" y="5" width="1" height="1" fill="#686360" />
<rect x="35" y="5" width="1" height="1" fill="#686360" />
<rect x="36" y="5" width="1" height="1" fill="#686360" />
<rect x="37" y="5" width="1" height="1" fill="#686360" />
<rect x="38" y="5" width="1" height="1" fill="#686360" />
<rect x="39" y="5" width="1" height="1" fill="#686360" />
<rect x="40" y="5" width="1" height="1" fill="#686360" />
<rect x="41" y="5" width="1" height="1" fill="#686360" />
<rect x="42" y="5" width="1" height="1" fill="#686360" />
<rect x="43" y="5" width="1" height="1" fill="#686360" />
<rect x="44" y="5" width="1" height="1" fill="#686360" />
<rect x="45" y="5" width="1" height="1" fill="#686360" />
<rect x="46" y="5" width="1" height="1" fill="#686360" />
<rect x="47" y="5" width="1" height="1" fill="#686360" />
<rect x="48" y="5" width="1" height="1" fill="#686360" />
<rect x="49" y="5" width="1" height="1" fill="#686360" />
<rect x="50" y="5" width="1" height="1" fill="#686360" />
<rect x="51" y="5" width="1" height="1" fill="#686360" />
<rect x="52" y="5" width="1" height="1" fill="#686360" />
<rect x="53" y="5" width="1" height="1" fill="#686360" />
<rect x="54" y="5" width="1" height="1" fill="#686360" />
<rect x="55" y="5" width="1" height="1" fill="#686360" />
<rect x="56" y="5" width="1" height="1" fill="#686360" />
<rect x="57" y="5" width="1" height="1" fill="#686360" />
<rect x="58" y="5" width="1" height="1" fill="#686360" />
<rect x="59" y="5" width="1" height="1" fill="#686360" />
<rect x="60" y="5" width="1" height="1" fill="#686360" />
<rect x="61" y="5" width="1" height="1" fill="#686360" />
<rect x="62" y="5" width="1" height="1" fill="#686360" />
<rect x="63" y="5" width="1" height="1" fill="#686360" />
<rect x="5" y="6" width="1" height="1" fill="#686360" />
<rect x="6" y="6" width="1" height="1" fill="#686360" />
<rect x="32" y="6" width="1" height="1" fill="#686360" />
<rect x="33" y="6" width="1" height="1" fill="#686360" />
<rect x="34" y="6" width="1" height="1" fill="#686360" />
<rect x="35" y="6" width="1" height="1" fill="#686360" />
<rect x="36" y="6" width="1" height="1" fill="#686360" />
<rect x="37" y="6" width="1" height="1" fill="#686360" />
<rect x="38" y="6" width="1" height="1" fill="#686360" />
<rect x="39" y="6" width="1" height="1" fill="#686360" />
<rect x="40" y="6" width="1" height="1" fill="#686360" />
<rect x="41" y="6" width="1" height="1" fill="#686360" />
<rect x="42" y="6" width="1" height="1" fill="#686360" />
<rect x="43" y="6" width="1" height="1" fill="#686360" />
<rect x="44" y="6" width="1" height="1" fill="#686360" />
<rect x="45" y="6" width="1" height="1" fill="#686360" />
<rect x="46" y="6" width="1" height="1" fill="#686360" />
<rect x="5" y="7" width="1" height="1" fill="#686360" />
<rect x="6" y="7" width="1" height="1" fill="#686360" />
<rect x="5" y="8" width="1" height="1" fill="#686360" />
<rect x="6" y="8" width="1" height="1" fill="#686360" />
<rect x="5" y="9" width="1" height="1" fill="#686360" />
<rect x="6" y="9" width="1" height="1" fill="#686360" />
<rect x="5" y="10" width="1" height="1" fill="#686360" />
<rect x="6" y="10" width="1" height="1" fill="#686360" />
<rect x="5" y="11" width="1" height="1" fill="#686360" />
<rect x="6" y="11" width="1" height="1" fill="#686360" />
<rect x="5" y="12" width="1" height="1" fill="#686360" />
<rect x="6" y="12" width="1" height="1" fill="#686360" />
<rect x="5" y="13" width="1" height="1" fill="#686360" />
<rect x="6" y="13" width="1" height="1" fill="#686360" />
<rect x="4" y="14" width="1" height="1" fill="#686360" />
<rect x="5" y="14" width="1" height="1" fill="#686360" />
<rect x="4" y="15" width="1" height="1" fill="#686360" />
<rect x="5" y="15" width="1" height="1" fill="#686360" />
<rect x="4" y="16" width="1" height="1" fill="#686360" />
<rect x="5" y="16" width="1" height="1" fill="#686360" />
<rect x="4" y="17" width="1" height="1" fill="#686360" />
<rect x="5" y="17" width="1" height="1" fill="#686360" />
<rect x="4" y="18" width="1" height="1" fill="#686360" />
<rect x="5" y="18" width="1" height="1" fill="#686360" />
<rect x="4" y="19" width="1" height="1" fill="#686360" />
<rect x="5" y="19" width="1" height="1" fill="#686360" />
<rect x="4" y="20" width="1" height="1" fill="#686360" />
<rect x="5" y="20" width="1" height="1" fill="#686360" />
<rect x="4" y="21" width="1" height="1" fill="#686360" />
<rect x="5" y="21" width="1" height="1" fill="#686360" />
<rect x="4" y="22" width="1" height="1" fill="#686360" />
<rect x="5" y="22" width="1" height="1" fill="#686360" />
<rect x="4" y="23" width="1" height="1" fill="#686360" />
<rect x="5" y="23" width="1" height="1" fill="#686360" />
<rect x="4" y="24" width="1" height="1" fill="#686360" />
<rect x="5" y="24" width="1" height="1" fill="#686360" />
<rect x="4" y="25" width="1" height="1" fill="#686360" />
<rect x="5" y="25" width="1" height="1" fill="#686360" />
<rect x="3" y="26" width="1" height="1" fill="#686360" />
<rect x="4" y="26" width="1" height="1" fill="#686360" />
<rect x="3" y="27" width="1" height="1" fill="#686360" />
<rect x="4" y="27" width="1" height="1" fill="#686360" />
<rect x="3" y="28" width="1" height="1" fill="#686360" />
<rect x="4" y="28" width="1" height="1" fill="#686360" />
<rect x="3" y="29" width="1" height="1" fill="#686360" />
<rect x="4" y="29" width="1" height="1" fill="#686360" />
<rect x="3" y="30" width="1" height="1" fill="#686360" />
<rect x="4" y="30" width="1" height="1" fill="#686360" />
<rect x="3" y="31" width="1" height="1" fill="#686360" />
<rect x="4" y="31" width="1" height="1" fill="#686360" />
<rect x="3" y="32" width="1" height="1" fill="#686360" />
<rect x="4" y="32" width="1" height="1" fill="#686360" />
<rect x="3" y="33" width="1" height="1" fill="#686360" />
<rect x="4" y="33" width="1" height="1" fill="#686360" />
<rect x="3" y="34" width="1" height="1" fill="#686360" />
<rect x="4" y="34" width="1" height="1" fill="#686360" />
<rect x="3" y="35" width="1" height="1" fill="#686360" />
<rect x="4" y="35" width="1" height="1" fill="#686360" />
<rect x="3" y="36" width="1" height="1" fill="#686360" />
<rect x="4" y="36" width="1" height="1" fill="#686360" />
<rect x="3" y="37" width="1" height="1" fill="#686360" />
<rect x="4" y="37" width="1" height="1" fill="#686360" />
<rect x="3" y="38" width="1" height="1" fill="#686360" />
<rect x="4" y="38" width="1" height="1" fill="#686360" />
<rect x="3" y="39" width="1" height="1" fill="#686360" />
<rect x="4" y="39" width="1" height="1" fill="#686360" />
<rect x="3" y="40" width="1" height="1" fill="#686360" />
<rect x="4" y="40" width="1" height="1" fill="#686360" />
<rect x="3" y="41" width="1" height="1" fill="#686360" />
<rect x="4" y="41" width="1" height="1" fill="#686360" />
<rect x="3" y="42" width="1" height="1" fill="#686360" />
<rect x="4" y="42" width="1" height="1" fill="#686360" />
<rect x="2" y="43" width="1" height="1" fill="#686360" />
<rect x="3" y="43" width="1" height="1" fill="#686360" />
<rect x="2" y="44" width="1" height="1" fill="#686360" />
<rect x="3" y="44" width="1" height="1" fill="#686360" />
<rect x="2" y="45" width="1" height="1" fill="#686360" />
<rect x="3" y="45" width="1" height="1" fill="#686360" />
<rect x="2" y="46" width="1" height="1" fill="#686360" />
<rect x="3" y="46" width="1" height="1" fill="#686360" />
<rect x="2" y="47" width="1" height="1" fill="#686360" />
<rect x="3" y="47" width="1" height="1" fill="#686360" />
<rect x="2" y="48" width="1" height="1" fill="#686360" />
<rect x="3" y="48" width="1" height="1" fill="#686360" />
<rect x="2" y="49" width="1" height="1" fill="#686360" />
<rect x="3" y="49" width="1" height="1" fill="#686360" />
<rect x="2" y="50" width="1" height="1" fill="#686360" />
<rect x="3" y="50" width="1" height="1" fill="#686360" />
<rect x="2" y="51" width="1" height="1" fill="#686360" />
<rect x="3" y="51" width="1" height="1" fill="#686360" />
<rect x="2" y="52" width="1" height="1" fill="#686360" />
<rect x="3" y="52" width="1" height="1" fill="#686360" />
<rect x="2" y="53" width="1" height="1" fill="#686360" />
<rect x="3" y="53" width="1" height="1" fill="#686360" />
<rect x="2" y="54" width="1" height="1" fill="#686360" />
<rect x="3" y="54" width="1" height="1" fill="#686360" />
<rect x="2" y="55" width="1" height="1" fill="#686360" />
<rect x="3" y="55" width="1" height="1" fill="#686360" />
<rect x="2" y="56" width="1" height="1" fill="#686360" />
<rect x="3" y="56" width="1" height="1" fill="#686360" />
<rect x="2" y="57" width="1" height="1" fill="#686360" />
<rect x="3" y="57" width="1" height="1" fill="#686360" />
<rect x="2" y="58" width="1" height="1" fill="#686360" />
<rect x="3" y="58" width="1" height="1" fill="#686360" />
<rect x="2" y="59" width="1" height="1" fill="#686360" />
<rect x="3" y="59" width="1" height="1" fill="#686360" />
<rect x="2" y="60" width="1" height="1" fill="#686360" />
<rect x="3" y="60" width="1" height="1" fill="#686360" />
<rect x="2" y="61" width="1" height="1" fill="#686360" />
<rect x="3" y="61" width="1" height="1" fill="#686360" />
<rect x="2" y="62" width="1" height="1" fill="#686360" />
<rect x="3" y="62" width="1" height="1" fill="#686360" />
<rect x="2" y="63" width="1" height="1" fill="#686360" />
<rect x="3" y="63" width="1" height="1" fill="#686360" />
</svg>