<?xml version="1.0" encoding="UTF-8" ?>
<svg version="1.1" width="64" height="64" xmlns="http://www.w3.org/2000/svg" shape-rendering="crispEdges">
<rect x="60" y="0" width="1" height="1" fill="#686360" />
<rect x="61" y="0" width="1" height="1" fill="#686360" />
<rect x="60" y="1" width="1" height="1" fill="#686360" />
<rect x="61" y="1" width="1" height="1" fill="#686360" />
<rect x="60" y="2" width="1" height="1" fill="#686360" />
<rect x="61" y="2" width="1" height="1" fill="#686360" />
<rect x="60" y="3" width="1" height="1" fill="#686360" />
<rect x="61" y="3" width="1" height="1" fill="#686360" />
<rect x="60" y="4" width="1" height="1" fill="#686360" />
<rect x="61" y="4" width="1" height="1" fill="#686360" />
<rect x="60" y="5" width="1" height="1" fill="#686360" />
<rect x="61" y="5" width="1" height="1" fill="#686360" />
<rect x="60" y="6" width="1" height="1" fill="#686360" />
<rect x="61" y="6" width="1" height="1" fill="#686360" />
<rect x="60" y="7" width="1" height="1" fill="#686360" />
<rect x="61" y="7" width="1" height="1" fill="#686360" />
<rect x="60" y="8" width="1" height="1" fill="#686360" />
<rect x="61" y="8" width="1" height="1" fill="#686360" />
<rect x="60" y="9" width="1" height="1" fill="#686360" />
<rect x="61" y="9" width="1" height="1" fill="#686360" />
<rect x="60" y="10" width="1" height="1" fill="#686360" />
<rect x="61" y="10" width="1" height="1" fill="#686360" />
<rect x="60" y="11" width="1" height="1" fill="#686360" />
<rect x="61" y="11" width="1" height="1" fill="#686360" />
<rect x="60" y="12" width="1" height="1" fill="#686360" />
<rect x="61" y="12" width="1" height="1" fill="#686360" />
<rect x="60" y="13" width="1" height="1" fill="#686360" />
<rect x="61" y="13" width="1" height="1" fill="#686360" />
<rect x="60" y="14" width="1" height="1" fill="#686360" />
<rect x="61" y="14" width="1" height="1" fill="#686360" />
<rect x="60" y="15" width="1" height="1" fill="#686360" />
<rect x="61" y="15" width="1" height="1" fill="#686360" />
<rect x="60" y="16" width="1" height="1" fill="#686360" />
<rect x="61" y="16" width="1" height="1" fill="#686360" />
<rect x="60" y="17" width="1" height="1" fill="#686360" />
<rect x="61" y="17" width="1" height="1" fill="#686360" />
<rect x="60" y="18" width="1" height="1" fill="#686360" />
<rect x="61" y="18" width="1" height="1" fill="#686360" />
<rect x="60" y="19" width="1" height="1" fill="#686360" />
<rect x="61" y="19" width="1" height="1" fill="#686360" />
<rect x="60" y="20" width="1" height="1" fill="#686360" />
<rect x="61" y="20" width="1" height="1" fill="#686360" />
<rect x="60" y="21" width="1" height="1" fill="#686360" />
<rect x="61" y="21" width="1" height="1" fill="#686360" />
<rect x="60" y="22" width="1" height="1" fill="#686360" />
<rect x="61" y="22" width="1" height="1" fill="#686360" />
<rect x="60" y="23" width="1" height="1" fill="#686360" />
<rect x="61" y="23" width="1" height="1" fill="#686360" />
<rect x="60" y="24" width="1" height="1" fill="#686360" />
<rect x="61" y="24" width="1" height="1" fill="#686360" />
<rect x="60" y="25" width="1" height="1" fill="#686360" />
<rect x="61" y="25" width="1" height="1" fill="#686360" />
<rect x="60" y="26" width="1" height="1" fill="#686360" />
<rect x="61" y="26" width="1" height="1" fill="#686360" />
<rect x="60" y="27" width="1" height="1" fill="#686360" />
<rect x="61" y="27" width="1" height="1" fill="#686360" />
<rect x="60" y="28" width="1" height="1" fill="#686360" />
<rect x="61" y="28" width="1" height="1" fill="#686360" />
<rect x="60" y="29" width="1" height="1" fill="#686360" />
<rect x="61" y="29" width="1" height="1" fill="#686360" />
<rect x="60" y="30" width="1" height="1" fill="#686360" />
<rect x="61" y="30" width="1" height="1" fill="#686360" />
<rect x="60" y="31" width="1" height="1" fill="#686360" />
<rect x="61" y="31" width="1" height="1" fill="#686360" />
<rect x="60" y="32" width="1" height="1" fill="#686360" />
<rect x="61" y="32" width="1" height="1" fill="#686360" />
<rect x="60" y="33" width="1" height="1" fill="#686360" />
<rect x="61" y="33" width="1" height="1" fill="#686360" />
<rect x="60" y="34" width="1" height="1" fill="#686360" />
<rect x="61" y="34" width="1" height="1" fill="#686360" />
<rect x="60" y="35" width="1" height="1" fill="#686360" />
<rect x="61" y="35" width="1" height="1" fill="#686360" />
<rect x="60" y="36" width="1" height="1" fill="#686360" />
<rect x="61" y="36" width="1" height="1" fill="#686360" />
<rect x="60" y="37" width="1" height="1" fill="#686360" />
<rect x="61" y="37" width="1" height="1" fill="#686360" />
<rect x="60" y="38" width="1" height="1" fill="#686360" />
<rect x="61" y="38" width="1" height="1" fill="#686360" />
<rect x="60" y="39" width="1" height="1" fill="#686360" />
<rect x="61" y="39" width="1" height="1" fill="#686360" />
<rect x="60" y="40" width="1" height="1" fill="#686360" />
<rect x="61" y="40" width="1" height="1" fill="#686360" />
<rect x="60" y="41" width="1" height="1" fill="#686360" />
<rect x="61" y="41" width="1" height="1" fill="#686360" />
<rect x="60" y="42" width="1" height="1" fill="#686360" />
<rect x="61" y="42" width="1" height="1" fill="#686360" />
<rect x="60" y="43" width="1" height="1" fill="#686360" />
<rect x="61" y="43" width="1" height="1" fill="#686360" />
<rect x="60" y="44" width="1" height="1" fill="#686360" />
<rect x="61" y="44" width="1" height="1" fill="#686360" />
<rect x="60" y="45" width="1" height="1" fill="#686360" />
<rect x="61" y="45" width="1" height="1" fill="#686360" />
<rect x="60" y="46" width="1" height="1" fill="#686360" />
<rect x="61" y="46" width="1" height="1" fill="#686360" />
<rect x="60" y="47" width="1" height="1" fill="#686360" />
<rect x="61" y="47" width="1" height="1" fill="#686360" />
<rect x="60" y="48" width="1" height="1" fill="#686360" />
<rect x="61" y="48" width="1" height="1" fill="#686360" />
<rect x="60" y="49" width="1" height="1" fill="#686360" />
<rect x="61" y="49" width="1" height="1" fill="#686360" />
<rect x="60" y="50" width="1" height="1" fill="#686360" />
<rect x="61" y="50" width="1" height="1" fill="#686360" />
<rect x="60" y="51" width="1" height="1" fill="#686360" />
<rect x="61" y="51" width="1" height="1" fill="#686360" />
<rect x="60" y="52" width="1" height="1" fill="#686360" />
<rect x="61" y="52" width="1" height="1" fill="#686360" />
<rect x="60" y="53" width="1" height="1" fill="#686360" />
<rect x="61" y="53" width="1" height="1" fill="#686360" />
<rect x="60" y="54" width="1" height="1" fill="#686360" />
<rect x="61" y="54" width="1" height="1" fill="#686360" />
<rect x="60" y="55" width="1" height="1" fill="#686360" />
<rect x="61" y="55" width="1" height="1" fill="#686360" />
<rect x="60" y="56" width="1" height="1" fill="#686360" />
<rect x="61" y="56" width="1" height="1" fill="#686360" />
<rect x="60" y="57" width="1" height="1" fill="#686360" />
<rect x="61" y="57" width="1" height="1" fill="#686360" />
<rect x="60" y="58" width="1" height="1" fill="#686360" />
<rect x="61" y="58" width="1" height="1" fill="#686360" />
<rect x="60" y="59" width="1" height="1" fill="#686360" />
<rect x="61" y="59" width="1" height="1" fill="#686360" />
<rect x="60" y="60" width="1" height="1" fill="#686360" />
<rect x="61" y="60" width="1" height="1" fill="#686360" />
<rect x="60" y="61" width="1" height="1" fill="#686360" />
<rect x="61" y="61" width="1" height="1" fill="#686360" />
<rect x="60" y="62" width="1" height="1" fill="#686360" />
<rect x="61" y="62" width="1" height="1" fill="#686360" />
<rect x="60" y="63" width="1" height="1" fill="#686360" />
<rect x="61" y="63" width="1" height="1" fill="#686360" />
</svg>