<?xml version="1.0" encoding="UTF-8" ?>
<svg version="1.1" width="64" height="64" xmlns="http://www.w3.org/2000/svg" shape-rendering="crispEdges">
<rect x="16" y="10" width="1" height="1" fill="#000000" opacity="0.101961" />
<rect x="17" y="10" width="1" height="1" fill="#000000" opacity="0.101961" />
<rect x="18" y="10" width="1" height="1" fill="#000000" opacity="0.101961" />
<rect x="16" y="11" width="1" height="1" fill="#000000" opacity="0.101961" />
<rect x="17" y="11" width="1" height="1" fill="#000000" opacity="0.101961" />
<rect x="18" y="11" width="1" height="1" fill="#000000" opacity="0.101961" />
<rect x="19" y="11" width="1" height="1" fill="#000000" opacity="0.101961" />
<rect x="16" y="12" width="1" height="1" fill="#000000" opacity="0.101961" />
<rect x="17" y="12" width="1" height="1" fill="#000000" opacity="0.101961" />
<rect x="18" y="12" width="1" height="1" fill="#000000" opacity="0.101961" />
<rect x="19" y="12" width="1" height="1" fill="#000000" opacity="0.101961" />
<rect x="16" y="13" width="1" height="1" fill="#000000" opacity="0.101961" />
<rect x="17" y="13" width="1" height="1" fill="#000000" opacity="0.101961" />
<rect x="18" y="13" width="1" height="1" fill="#000000" opacity="0.101961" />
<rect x="19" y="13" width="1" height="1" fill="#000000" opacity="0.101961" />
<rect x="16" y="14" width="1" height="1" fill="#000000" opacity="0.101961" />
<rect x="17" y="14" width="1" height="1" fill="#000000" opacity="0.101961" />
<rect x="18" y="14" width="1" height="1" fill="#000000" opacity="0.101961" />
<rect x="19" y="14" width="1" height="1" fill="#000000" opacity="0.101961" />
<rect x="30" y="14" width="1" height="1" fill="#000000" opacity="0.101961" />
<rect x="31" y="14" width="1" height="1" fill="#000000" opacity="0.101961" />
<rect x="32" y="14" width="1" height="1" fill="#000000" opacity="0.101961" />
<rect x="33" y="14" width="1" height="1" fill="#000000" opacity="0.101961" />
<rect x="17" y="15" width="1" height="1" fill="#000000" opacity="0.101961" />
<rect x="18" y="15" width="1" height="1" fill="#000000" opacity="0.101961" />
<rect x="19" y="15" width="1" height="1" fill="#000000" opacity="0.101961" />
<rect x="29" y="15" width="1" height="1" fill="#000000" opacity="0.101961" />
<rect x="30" y="15" width="1" height="1" fill="#000000" opacity="0.101961" />
<rect x="31" y="15" width="1" height="1" fill="#000000" opacity="0.101961" />
<rect x="32" y="15" width="1" height="1" fill="#000000" opacity="0.101961" />
<rect x="33" y="15" width="1" height="1" fill="#000000" opacity="0.101961" />
<rect x="17" y="16" width="1" height="1" fill="#000000" opacity="0.101961" />
<rect x="18" y="16" width="1" height="1" fill="#000000" opacity="0.101961" />
<rect x="19" y="16" width="1" height="1" fill="#000000" opacity="0.101961" />
<rect x="29" y="16" width="1" height="1" fill="#000000" opacity="0.101961" />
<rect x="30" y="16" width="1" height="1" fill="#000000" opacity="0.101961" />
<rect x="31" y="16" width="1" height="1" fill="#000000" opacity="0.101961" />
<rect x="32" y="16" width="1" height="1" fill="#000000" opacity="0.101961" />
<rect x="33" y="16" width="1" height="1" fill="#000000" opacity="0.101961" />
<rect x="18" y="17" width="1" height="1" fill="#000000" opacity="0.101961" />
<rect x="19" y="17" width="1" height="1" fill="#000000" opacity="0.101961" />
<rect x="28" y="17" width="1" height="1" fill="#000000" opacity="0.101961" />
<rect x="29" y="17" width="1" height="1" fill="#000000" opacity="0.101961" />
<rect x="30" y="17" width="1" height="1" fill="#000000" opacity="0.101961" />
<rect x="31" y="17" width="1" height="1" fill="#000000" opacity="0.101961" />
<rect x="27" y="18" width="1" height="1" fill="#000000" opacity="0.101961" />
<rect x="28" y="18" width="1" height="1" fill="#000000" opacity="0.101961" />
<rect x="29" y="18" width="1" height="1" fill="#000000" opacity="0.101961" />
<rect x="27" y="19" width="1" height="1" fill="#000000" opacity="0.101961" />
<rect x="13" y="20" width="1" height="1" fill="#000000" opacity="0.101961" />
<rect x="14" y="20" width="1" height="1" fill="#000000" opacity="0.101961" />
<rect x="13" y="21" width="1" height="1" fill="#000000" opacity="0.101961" />
<rect x="14" y="21" width="1" height="1" fill="#000000" opacity="0.101961" />
<rect x="15" y="21" width="1" height="1" fill="#000000" opacity="0.101961" />
<rect x="18" y="21" width="1" height="1" fill="#000000" opacity="0.101961" />
<rect x="19" y="21" width="1" height="1" fill="#000000" opacity="0.101961" />
<rect x="20" y="21" width="1" height="1" fill="#000000" opacity="0.101961" />
<rect x="13" y="22" width="1" height="1" fill="#000000" opacity="0.101961" />
<rect x="14" y="22" width="1" height="1" fill="#000000" opacity="0.101961" />
<rect x="15" y="22" width="1" height="1" fill="#000000" opacity="0.101961" />
<rect x="18" y="22" width="1" height="1" fill="#000000" opacity="0.101961" />
<rect x="19" y="22" width="1" height="1" fill="#000000" opacity="0.101961" />
<rect x="20" y="22" width="1" height="1" fill="#000000" opacity="0.101961" />
<rect x="21" y="22" width="1" height="1" fill="#000000" opacity="0.101961" />
<rect x="14" y="23" width="1" height="1" fill="#000000" opacity="0.101961" />
<rect x="15" y="23" width="1" height="1" fill="#000000" opacity="0.101961" />
<rect x="18" y="23" width="1" height="1" fill="#000000" opacity="0.101961" />
<rect x="19" y="23" width="1" height="1" fill="#000000" opacity="0.101961" />
<rect x="20" y="23" width="1" height="1" fill="#000000" opacity="0.101961" />
<rect x="21" y="23" width="1" height="1" fill="#000000" opacity="0.101961" />
<rect x="22" y="23" width="1" height="1" fill="#000000" opacity="0.101961" />
<rect x="18" y="24" width="1" height="1" fill="#000000" opacity="0.101961" />
<rect x="19" y="24" width="1" height="1" fill="#000000" opacity="0.101961" />
<rect x="20" y="24" width="1" height="1" fill="#000000" opacity="0.101961" />
<rect x="21" y="24" width="1" height="1" fill="#000000" opacity="0.101961" />
<rect x="22" y="24" width="1" height="1" fill="#000000" opacity="0.101961" />
<rect x="17" y="25" width="1" height="1" fill="#000000" opacity="0.101961" />
<rect x="18" y="25" width="1" height="1" fill="#000000" opacity="0.101961" />
<rect x="19" y="25" width="1" height="1" fill="#000000" opacity="0.101961" />
<rect x="20" y="25" width="1" height="1" fill="#000000" opacity="0.101961" />
<rect x="21" y="25" width="1" height="1" fill="#000000" opacity="0.101961" />
<rect x="22" y="25" width="1" height="1" fill="#000000" opacity="0.101961" />
<rect x="14" y="26" width="1" height="1" fill="#000000" opacity="0.101961" />
<rect x="15" y="26" width="1" height="1" fill="#000000" opacity="0.101961" />
<rect x="16" y="26" width="1" height="1" fill="#000000" opacity="0.101961" />
<rect x="17" y="26" width="1" height="1" fill="#000000" opacity="0.101961" />
<rect x="18" y="26" width="1" height="1" fill="#000000" opacity="0.101961" />
<rect x="19" y="26" width="1" height="1" fill="#000000" opacity="0.101961" />
<rect x="20" y="26" width="1" height="1" fill="#000000" opacity="0.101961" />
<rect x="21" y="26" width="1" height="1" fill="#000000" opacity="0.101961" />
<rect x="22" y="26" width="1" height="1" fill="#000000" opacity="0.101961" />
<rect x="14" y="27" width="1" height="1" fill="#000000" opacity="0.101961" />
<rect x="15" y="27" width="1" height="1" fill="#000000" opacity="0.101961" />
<rect x="16" y="27" width="1" height="1" fill="#000000" opacity="0.101961" />
<rect x="17" y="27" width="1" height="1" fill="#000000" opacity="0.101961" />
<rect x="18" y="27" width="1" height="1" fill="#000000" opacity="0.101961" />
<rect x="19" y="27" width="1" height="1" fill="#000000" opacity="0.101961" />
<rect x="20" y="27" width="1" height="1" fill="#000000" opacity="0.101961" />
<rect x="21" y="27" width="1" height="1" fill="#000000" opacity="0.101961" />
<rect x="22" y="27" width="1" height="1" fill="#000000" opacity="0.101961" />
<rect x="14" y="28" width="1" height="1" fill="#000000" opacity="0.101961" />
<rect x="15" y="28" width="1" height="1" fill="#000000" opacity="0.101961" />
<rect x="16" y="28" width="1" height="1" fill="#000000" opacity="0.101961" />
<rect x="17" y="28" width="1" height="1" fill="#000000" opacity="0.101961" />
<rect x="18" y="28" width="1" height="1" fill="#000000" opacity="0.101961" />
<rect x="19" y="28" width="1" height="1" fill="#000000" opacity="0.101961" />
<rect x="20" y="28" width="1" height="1" fill="#000000" opacity="0.101961" />
<rect x="21" y="28" width="1" height="1" fill="#000000" opacity="0.101961" />
<rect x="22" y="28" width="1" height="1" fill="#000000" opacity="0.101961" />
<rect x="14" y="29" width="1" height="1" fill="#000000" opacity="0.101961" />
<rect x="15" y="29" width="1" height="1" fill="#000000" opacity="0.101961" />
<rect x="16" y="29" width="1" height="1" fill="#000000" opacity="0.101961" />
<rect x="17" y="29" width="1" height="1" fill="#000000" opacity="0.101961" />
<rect x="18" y="29" width="1" height="1" fill="#000000" opacity="0.101961" />
<rect x="19" y="29" width="1" height="1" fill="#000000" opacity="0.101961" />
<rect x="20" y="29" width="1" height="1" fill="#000000" opacity="0.101961" />
<rect x="21" y="29" width="1" height="1" fill="#000000" opacity="0.101961" />
<rect x="22" y="29" width="1" height="1" fill="#000000" opacity="0.101961" />
<rect x="23" y="29" width="1" height="1" fill="#000000" opacity="0.101961" />
<rect x="15" y="30" width="1" height="1" fill="#000000" opacity="0.101961" />
<rect x="16" y="30" width="1" height="1" fill="#000000" opacity="0.101961" />
<rect x="17" y="30" width="1" height="1" fill="#000000" opacity="0.101961" />
<rect x="18" y="30" width="1" height="1" fill="#000000" opacity="0.101961" />
<rect x="19" y="30" width="1" height="1" fill="#000000" opacity="0.101961" />
<rect x="20" y="30" width="1" height="1" fill="#000000" opacity="0.101961" />
<rect x="21" y="30" width="1" height="1" fill="#000000" opacity="0.101961" />
<rect x="22" y="30" width="1" height="1" fill="#000000" opacity="0.101961" />
<rect x="23" y="30" width="1" height="1" fill="#000000" opacity="0.101961" />
<rect x="24" y="30" width="1" height="1" fill="#000000" opacity="0.101961" />
<rect x="15" y="31" width="1" height="1" fill="#000000" opacity="0.101961" />
<rect x="16" y="31" width="1" height="1" fill="#000000" opacity="0.101961" />
<rect x="17" y="31" width="1" height="1" fill="#000000" opacity="0.101961" />
<rect x="18" y="31" width="1" height="1" fill="#000000" opacity="0.101961" />
<rect x="19" y="31" width="1" height="1" fill="#000000" opacity="0.101961" />
<rect x="20" y="31" width="1" height="1" fill="#000000" opacity="0.101961" />
<rect x="23" y="31" width="1" height="1" fill="#000000" opacity="0.101961" />
<rect x="24" y="31" width="1" height="1" fill="#000000" opacity="0.101961" />
<rect x="25" y="31" width="1" height="1" fill="#000000" opacity="0.101961" />
<rect x="15" y="32" width="1" height="1" fill="#000000" opacity="0.101961" />
<rect x="16" y="32" width="1" height="1" fill="#000000" opacity="0.101961" />
<rect x="17" y="32" width="1" height="1" fill="#000000" opacity="0.101961" />
<rect x="18" y="32" width="1" height="1" fill="#000000" opacity="0.101961" />
<rect x="24" y="32" width="1" height="1" fill="#000000" opacity="0.101961" />
<rect x="25" y="32" width="1" height="1" fill="#000000" opacity="0.101961" />
<rect x="14" y="33" width="1" height="1" fill="#000000" opacity="0.101961" />
<rect x="15" y="33" width="1" height="1" fill="#000000" opacity="0.101961" />
<rect x="16" y="33" width="1" height="1" fill="#000000" opacity="0.101961" />
<rect x="17" y="33" width="1" height="1" fill="#000000" opacity="0.101961" />
<rect x="24" y="33" width="1" height="1" fill="#000000" opacity="0.101961" />
<rect x="25" y="33" width="1" height="1" fill="#000000" opacity="0.101961" />
<rect x="14" y="34" width="1" height="1" fill="#000000" opacity="0.101961" />
<rect x="15" y="34" width="1" height="1" fill="#000000" opacity="0.101961" />
<rect x="16" y="34" width="1" height="1" fill="#000000" opacity="0.101961" />
<rect x="17" y="34" width="1" height="1" fill="#000000" opacity="0.101961" />
<rect x="24" y="34" width="1" height="1" fill="#000000" opacity="0.101961" />
<rect x="25" y="34" width="1" height="1" fill="#000000" opacity="0.101961" />
<rect x="13" y="35" width="1" height="1" fill="#000000" opacity="0.101961" />
<rect x="14" y="35" width="1" height="1" fill="#000000" opacity="0.101961" />
<rect x="15" y="35" width="1" height="1" fill="#000000" opacity="0.101961" />
<rect x="16" y="35" width="1" height="1" fill="#000000" opacity="0.101961" />
<rect x="17" y="35" width="1" height="1" fill="#000000" opacity="0.101961" />
<rect x="13" y="36" width="1" height="1" fill="#000000" opacity="0.101961" />
<rect x="14" y="36" width="1" height="1" fill="#000000" opacity="0.101961" />
<rect x="15" y="36" width="1" height="1" fill="#000000" opacity="0.101961" />
<rect x="16" y="36" width="1" height="1" fill="#000000" opacity="0.101961" />
<rect x="17" y="36" width="1" height="1" fill="#000000" opacity="0.101961" />
<rect x="12" y="37" width="1" height="1" fill="#000000" opacity="0.101961" />
<rect x="13" y="37" width="1" height="1" fill="#000000" opacity="0.101961" />
<rect x="14" y="37" width="1" height="1" fill="#000000" opacity="0.101961" />
<rect x="15" y="37" width="1" height="1" fill="#000000" opacity="0.101961" />
<rect x="16" y="37" width="1" height="1" fill="#000000" opacity="0.101961" />
<rect x="12" y="38" width="1" height="1" fill="#000000" opacity="0.101961" />
<rect x="13" y="38" width="1" height="1" fill="#000000" opacity="0.101961" />
<rect x="14" y="38" width="1" height="1" fill="#000000" opacity="0.101961" />
<rect x="15" y="38" width="1" height="1" fill="#000000" opacity="0.101961" />
<rect x="16" y="38" width="1" height="1" fill="#000000" opacity="0.101961" />
<rect x="12" y="39" width="1" height="1" fill="#000000" opacity="0.101961" />
<rect x="13" y="39" width="1" height="1" fill="#000000" opacity="0.101961" />
<rect x="14" y="39" width="1" height="1" fill="#000000" opacity="0.101961" />
<rect x="15" y="39" width="1" height="1" fill="#000000" opacity="0.101961" />
<rect x="12" y="40" width="1" height="1" fill="#000000" opacity="0.101961" />
<rect x="13" y="40" width="1" height="1" fill="#000000" opacity="0.101961" />
<rect x="14" y="40" width="1" height="1" fill="#000000" opacity="0.101961" />
<rect x="15" y="40" width="1" height="1" fill="#000000" opacity="0.101961" />
</svg>